<mxfile host="app.diagrams.net" modified="2021-07-05T07:43:46.671Z" agent="5.0 (Windows NT 6.1; Win64; x64) AppleWebKit/537.36 (KHTML, like Gecko) Chrome/91.0.4472.124 Safari/537.36" etag="R1BnDtFW7N2NTc0rsUCf" version="14.8.3" type="github">
  <diagram id="CAjRs1XAV1HnVaX1nY8e" name="Page-1">
    <mxGraphModel dx="1422" dy="762" grid="1" gridSize="10" guides="1" tooltips="1" connect="1" arrows="1" fold="1" page="1" pageScale="1" pageWidth="827" pageHeight="1169" math="0" shadow="0">
      <root>
        <mxCell id="0" />
        <mxCell id="1" parent="0" />
        <mxCell id="ih0qP1JdHF-IoTjoA30h-6" value="表空间" style="swimlane;startSize=40;" vertex="1" parent="1">
          <mxGeometry x="80" y="40" width="200" height="560" as="geometry">
            <mxRectangle x="80" y="40" width="130" height="23" as="alternateBounds" />
          </mxGeometry>
        </mxCell>
        <mxCell id="ih0qP1JdHF-IoTjoA30h-9" value="extent0(1MB)" style="whiteSpace=wrap;html=1;fillColor=#dae8fc;strokeColor=#6c8ebf;" vertex="1" parent="ih0qP1JdHF-IoTjoA30h-6">
          <mxGeometry y="40" width="200" height="40" as="geometry" />
        </mxCell>
        <mxCell id="ih0qP1JdHF-IoTjoA30h-11" value="extent1(1MB)" style="whiteSpace=wrap;html=1;fillColor=#dae8fc;strokeColor=#6c8ebf;" vertex="1" parent="ih0qP1JdHF-IoTjoA30h-6">
          <mxGeometry y="80" width="200" height="40" as="geometry" />
        </mxCell>
        <mxCell id="ih0qP1JdHF-IoTjoA30h-12" value="extent2(1MB)" style="whiteSpace=wrap;html=1;fillColor=#dae8fc;strokeColor=#6c8ebf;" vertex="1" parent="ih0qP1JdHF-IoTjoA30h-6">
          <mxGeometry y="120" width="200" height="40" as="geometry" />
        </mxCell>
        <mxCell id="ih0qP1JdHF-IoTjoA30h-13" value="。。。。。。" style="whiteSpace=wrap;html=1;fillColor=#dae8fc;strokeColor=#6c8ebf;" vertex="1" parent="ih0qP1JdHF-IoTjoA30h-6">
          <mxGeometry y="160" width="200" height="40" as="geometry" />
        </mxCell>
        <mxCell id="ih0qP1JdHF-IoTjoA30h-14" value="extent255(1MB)" style="whiteSpace=wrap;html=1;fillColor=#dae8fc;strokeColor=#6c8ebf;" vertex="1" parent="ih0qP1JdHF-IoTjoA30h-6">
          <mxGeometry y="200" width="200" height="40" as="geometry" />
        </mxCell>
        <mxCell id="ih0qP1JdHF-IoTjoA30h-22" value="extent256(1MB)" style="whiteSpace=wrap;html=1;fillColor=#d5e8d4;strokeColor=#82b366;" vertex="1" parent="ih0qP1JdHF-IoTjoA30h-6">
          <mxGeometry y="240" width="200" height="40" as="geometry" />
        </mxCell>
        <mxCell id="ih0qP1JdHF-IoTjoA30h-23" value="extent257(1MB)" style="whiteSpace=wrap;html=1;fillColor=#d5e8d4;strokeColor=#82b366;" vertex="1" parent="ih0qP1JdHF-IoTjoA30h-6">
          <mxGeometry y="280" width="200" height="40" as="geometry" />
        </mxCell>
        <mxCell id="ih0qP1JdHF-IoTjoA30h-24" value="extent258(1MB)" style="whiteSpace=wrap;html=1;fillColor=#d5e8d4;strokeColor=#82b366;" vertex="1" parent="ih0qP1JdHF-IoTjoA30h-6">
          <mxGeometry y="320" width="200" height="40" as="geometry" />
        </mxCell>
        <mxCell id="ih0qP1JdHF-IoTjoA30h-25" value="。。。。。。" style="whiteSpace=wrap;html=1;fillColor=#d5e8d4;strokeColor=#82b366;" vertex="1" parent="ih0qP1JdHF-IoTjoA30h-6">
          <mxGeometry y="360" width="200" height="40" as="geometry" />
        </mxCell>
        <mxCell id="ih0qP1JdHF-IoTjoA30h-26" value="extent511(1MB)" style="whiteSpace=wrap;html=1;fillColor=#d5e8d4;strokeColor=#82b366;" vertex="1" parent="ih0qP1JdHF-IoTjoA30h-6">
          <mxGeometry y="400" width="200" height="40" as="geometry" />
        </mxCell>
        <mxCell id="ih0qP1JdHF-IoTjoA30h-27" value="256M" style="text;html=1;strokeColor=none;fillColor=none;align=center;verticalAlign=middle;whiteSpace=wrap;rounded=0;" vertex="1" parent="ih0qP1JdHF-IoTjoA30h-6">
          <mxGeometry x="-40" y="240" width="40" height="20" as="geometry" />
        </mxCell>
        <mxCell id="ih0qP1JdHF-IoTjoA30h-28" value="257M" style="text;html=1;strokeColor=none;fillColor=none;align=center;verticalAlign=middle;whiteSpace=wrap;rounded=0;" vertex="1" parent="ih0qP1JdHF-IoTjoA30h-6">
          <mxGeometry x="-40" y="280" width="40" height="20" as="geometry" />
        </mxCell>
        <mxCell id="ih0qP1JdHF-IoTjoA30h-29" value="258M" style="text;html=1;strokeColor=none;fillColor=none;align=center;verticalAlign=middle;whiteSpace=wrap;rounded=0;" vertex="1" parent="ih0qP1JdHF-IoTjoA30h-6">
          <mxGeometry x="-40" y="320" width="40" height="20" as="geometry" />
        </mxCell>
        <mxCell id="ih0qP1JdHF-IoTjoA30h-30" value="259M" style="text;html=1;strokeColor=none;fillColor=none;align=center;verticalAlign=middle;whiteSpace=wrap;rounded=0;" vertex="1" parent="ih0qP1JdHF-IoTjoA30h-6">
          <mxGeometry x="-40" y="360" width="40" height="20" as="geometry" />
        </mxCell>
        <mxCell id="ih0qP1JdHF-IoTjoA30h-31" value="511M" style="text;html=1;strokeColor=none;fillColor=none;align=center;verticalAlign=middle;whiteSpace=wrap;rounded=0;" vertex="1" parent="ih0qP1JdHF-IoTjoA30h-6">
          <mxGeometry x="-40" y="400" width="40" height="20" as="geometry" />
        </mxCell>
        <mxCell id="ih0qP1JdHF-IoTjoA30h-32" value="extent512(1MB)" style="whiteSpace=wrap;html=1;fillColor=#f8cecc;strokeColor=#b85450;" vertex="1" parent="ih0qP1JdHF-IoTjoA30h-6">
          <mxGeometry y="440" width="200" height="40" as="geometry" />
        </mxCell>
        <mxCell id="ih0qP1JdHF-IoTjoA30h-33" value="extent513(1MB)" style="whiteSpace=wrap;html=1;fillColor=#f8cecc;strokeColor=#b85450;" vertex="1" parent="ih0qP1JdHF-IoTjoA30h-6">
          <mxGeometry y="480" width="200" height="40" as="geometry" />
        </mxCell>
        <mxCell id="ih0qP1JdHF-IoTjoA30h-35" value="。。。。。。" style="whiteSpace=wrap;html=1;fillColor=#f8cecc;strokeColor=#b85450;" vertex="1" parent="ih0qP1JdHF-IoTjoA30h-6">
          <mxGeometry y="520" width="200" height="40" as="geometry" />
        </mxCell>
        <mxCell id="ih0qP1JdHF-IoTjoA30h-37" value="512M" style="text;html=1;strokeColor=none;fillColor=none;align=center;verticalAlign=middle;whiteSpace=wrap;rounded=0;" vertex="1" parent="ih0qP1JdHF-IoTjoA30h-6">
          <mxGeometry x="-40" y="440" width="40" height="20" as="geometry" />
        </mxCell>
        <mxCell id="ih0qP1JdHF-IoTjoA30h-38" value="513M" style="text;html=1;strokeColor=none;fillColor=none;align=center;verticalAlign=middle;whiteSpace=wrap;rounded=0;" vertex="1" parent="ih0qP1JdHF-IoTjoA30h-6">
          <mxGeometry x="-40" y="480" width="40" height="20" as="geometry" />
        </mxCell>
        <mxCell id="ih0qP1JdHF-IoTjoA30h-16" value="0M" style="text;html=1;strokeColor=none;fillColor=none;align=center;verticalAlign=middle;whiteSpace=wrap;rounded=0;" vertex="1" parent="1">
          <mxGeometry x="40" y="80" width="40" height="20" as="geometry" />
        </mxCell>
        <mxCell id="ih0qP1JdHF-IoTjoA30h-17" value="1M" style="text;html=1;strokeColor=none;fillColor=none;align=center;verticalAlign=middle;whiteSpace=wrap;rounded=0;" vertex="1" parent="1">
          <mxGeometry x="40" y="120" width="40" height="20" as="geometry" />
        </mxCell>
        <mxCell id="ih0qP1JdHF-IoTjoA30h-18" value="2M" style="text;html=1;strokeColor=none;fillColor=none;align=center;verticalAlign=middle;whiteSpace=wrap;rounded=0;" vertex="1" parent="1">
          <mxGeometry x="40" y="160" width="40" height="20" as="geometry" />
        </mxCell>
        <mxCell id="ih0qP1JdHF-IoTjoA30h-19" value="3M" style="text;html=1;strokeColor=none;fillColor=none;align=center;verticalAlign=middle;whiteSpace=wrap;rounded=0;" vertex="1" parent="1">
          <mxGeometry x="40" y="200" width="40" height="20" as="geometry" />
        </mxCell>
        <mxCell id="ih0qP1JdHF-IoTjoA30h-20" value="255M" style="text;html=1;strokeColor=none;fillColor=none;align=center;verticalAlign=middle;whiteSpace=wrap;rounded=0;" vertex="1" parent="1">
          <mxGeometry x="40" y="240" width="40" height="20" as="geometry" />
        </mxCell>
        <mxCell id="ih0qP1JdHF-IoTjoA30h-42" value="" style="endArrow=classic;html=1;" edge="1" parent="1">
          <mxGeometry width="50" height="50" relative="1" as="geometry">
            <mxPoint x="280" y="80" as="sourcePoint" />
            <mxPoint x="440" y="40" as="targetPoint" />
          </mxGeometry>
        </mxCell>
        <mxCell id="ih0qP1JdHF-IoTjoA30h-43" value="extent0的各个页" style="swimlane;" vertex="1" parent="1">
          <mxGeometry x="480" y="20" width="200" height="220" as="geometry" />
        </mxCell>
        <mxCell id="ih0qP1JdHF-IoTjoA30h-44" value="FSP_HDR(16K)" style="whiteSpace=wrap;html=1;fillColor=#dae8fc;strokeColor=#6c8ebf;" vertex="1" parent="ih0qP1JdHF-IoTjoA30h-43">
          <mxGeometry y="20" width="200" height="40" as="geometry" />
        </mxCell>
        <mxCell id="ih0qP1JdHF-IoTjoA30h-45" value="IBUF_BITMAP(16K)" style="whiteSpace=wrap;html=1;fillColor=#dae8fc;strokeColor=#6c8ebf;" vertex="1" parent="ih0qP1JdHF-IoTjoA30h-43">
          <mxGeometry y="60" width="200" height="40" as="geometry" />
        </mxCell>
        <mxCell id="ih0qP1JdHF-IoTjoA30h-46" value="INODE(16K)" style="whiteSpace=wrap;html=1;fillColor=#dae8fc;strokeColor=#6c8ebf;" vertex="1" parent="ih0qP1JdHF-IoTjoA30h-43">
          <mxGeometry y="100" width="200" height="40" as="geometry" />
        </mxCell>
        <mxCell id="ih0qP1JdHF-IoTjoA30h-52" value="。。。。。。" style="whiteSpace=wrap;html=1;fillColor=#dae8fc;strokeColor=#6c8ebf;" vertex="1" parent="ih0qP1JdHF-IoTjoA30h-43">
          <mxGeometry y="140" width="200" height="80" as="geometry" />
        </mxCell>
        <mxCell id="ih0qP1JdHF-IoTjoA30h-47" value="0" style="text;html=1;strokeColor=none;fillColor=none;align=center;verticalAlign=middle;whiteSpace=wrap;rounded=0;" vertex="1" parent="1">
          <mxGeometry x="440" y="40" width="40" height="20" as="geometry" />
        </mxCell>
        <mxCell id="ih0qP1JdHF-IoTjoA30h-48" value="16K" style="text;html=1;strokeColor=none;fillColor=none;align=center;verticalAlign=middle;whiteSpace=wrap;rounded=0;" vertex="1" parent="1">
          <mxGeometry x="440" y="80" width="40" height="20" as="geometry" />
        </mxCell>
        <mxCell id="ih0qP1JdHF-IoTjoA30h-49" value="32K" style="text;html=1;strokeColor=none;fillColor=none;align=center;verticalAlign=middle;whiteSpace=wrap;rounded=0;" vertex="1" parent="1">
          <mxGeometry x="440" y="120" width="40" height="20" as="geometry" />
        </mxCell>
        <mxCell id="ih0qP1JdHF-IoTjoA30h-50" value="48K" style="text;html=1;strokeColor=none;fillColor=none;align=center;verticalAlign=middle;whiteSpace=wrap;rounded=0;" vertex="1" parent="1">
          <mxGeometry x="440" y="160" width="40" height="20" as="geometry" />
        </mxCell>
        <mxCell id="ih0qP1JdHF-IoTjoA30h-51" value="1M" style="text;html=1;strokeColor=none;fillColor=none;align=center;verticalAlign=middle;whiteSpace=wrap;rounded=0;" vertex="1" parent="1">
          <mxGeometry x="440" y="220" width="40" height="20" as="geometry" />
        </mxCell>
      </root>
    </mxGraphModel>
  </diagram>
</mxfile>
